<svg id="visual" viewBox="0 0 960 200" width="960" height="200" xmlns="http://www.w3.org/2000/svg" xmlns:xlink="http://www.w3.org/1999/xlink" version="1.1"><path d="M0 37L10.7 58C21.3 79 42.7 121 64 139C85.3 157 106.7 151 128 128.2C149.3 105.3 170.7 65.7 192 50.7C213.3 35.7 234.7 45.3 256 62.8C277.3 80.3 298.7 105.7 320 103.2C341.3 100.7 362.7 70.3 384 79C405.3 87.7 426.7 135.3 448 159.2C469.3 183 490.7 183 512 156.2C533.3 129.3 554.7 75.7 576 47.5C597.3 19.3 618.7 16.7 640 29C661.3 41.3 682.7 68.7 704 86.3C725.3 104 746.7 112 768 116.2C789.3 120.3 810.7 120.7 832 120.3C853.3 120 874.7 119 896 125.5C917.3 132 938.7 146 949.3 153L960 160L960 201L949.3 201C938.7 201 917.3 201 896 201C874.7 201 853.3 201 832 201C810.7 201 789.3 201 768 201C746.7 201 725.3 201 704 201C682.7 201 661.3 201 640 201C618.7 201 597.3 201 576 201C554.7 201 533.3 201 512 201C490.7 201 469.3 201 448 201C426.7 201 405.3 201 384 201C362.7 201 341.3 201 320 201C298.7 201 277.3 201 256 201C234.7 201 213.3 201 192 201C170.7 201 149.3 201 128 201C106.7 201 85.3 201 64 201C42.7 201 21.3 201 10.7 201L0 201Z" fill="#715DF2" stroke-linecap="round" stroke-linejoin="miter"></path></svg>