<svg id="visual" viewBox="0 0 960 200" width="960" height="200" xmlns="http://www.w3.org/2000/svg" xmlns:xlink="http://www.w3.org/1999/xlink" version="1.1"><path d="M0 55L10.7 59C21.3 63 42.7 71 64 65.5C85.3 60 106.7 41 128 45.2C149.3 49.3 170.7 76.7 192 101.3C213.3 126 234.7 148 256 137.8C277.3 127.7 298.7 85.3 320 64.3C341.3 43.3 362.7 43.7 384 58.7C405.3 73.7 426.7 103.3 448 100.5C469.3 97.7 490.7 62.3 512 49.7C533.3 37 554.7 47 576 44C597.3 41 618.7 25 640 21.2C661.3 17.3 682.7 25.7 704 44.8C725.3 64 746.7 94 768 99C789.3 104 810.7 84 832 94.7C853.3 105.3 874.7 146.7 896 162.7C917.3 178.7 938.7 169.3 949.3 164.7L960 160L960 0L949.3 0C938.7 0 917.3 0 896 0C874.7 0 853.3 0 832 0C810.7 0 789.3 0 768 0C746.7 0 725.3 0 704 0C682.7 0 661.3 0 640 0C618.7 0 597.3 0 576 0C554.7 0 533.3 0 512 0C490.7 0 469.3 0 448 0C426.7 0 405.3 0 384 0C362.7 0 341.3 0 320 0C298.7 0 277.3 0 256 0C234.7 0 213.3 0 192 0C170.7 0 149.3 0 128 0C106.7 0 85.3 0 64 0C42.7 0 21.3 0 10.7 0L0 0Z" fill="#715DF2" stroke-linecap="round" stroke-linejoin="miter"></path></svg>